# xmcd CD database file
#
# Track frame offsets:
#	150
#	20732
#	41672
#	59557
#	79430
#	94372
#	119747
#	141555
#	158057
#	176617
#	195502
#	216030
#
# Disc length: 3054 seconds
#
# Revision: 0
# Processed by: cddbd v1.5.1PL0 Copyright (c) Steve Scherf et al.
# Submitted via: CDex 1.51
#
DISCID=b80bec0c
DTITLE=複数アーティスト - バラード・コレクション
DYEAR=1988
DGENRE=JPop
TTITLE0=渚・モデラート（高中正義）
TTITLE1=リンダ（ＢＬＵＥＷ）
TTITLE2=ＤＥＥＰ　ＩＮ　ＬＯＶＥ（ＮＯＢＯＤＹ）
TTITLE3=遥かなる願い（鈴木康博）
TTITLE4=摩天楼ブルース（山本達彦）
TTITLE5=ＤＯＮ’Ｔ　ＣＲＹ　ＭＹ　ＬＯＶＥ（長渕剛）
TTITLE6=ＧＡＲＡＧＥ（アースシェイカー）
TTITLE7=この愛に生きて（倉橋ルイ子）
TTITLE8=燃える秋（ハイ・ファイ・セット）
TTITLE9=ひまわり（門あさ美）
TTITLE10=星はもうヴェールをまとい（佐藤隆）
TTITLE11=琥珀の涙（和田加奈子）
EXTD=YEAR: 1988-02-05
EXTT0=
EXTT1=
EXTT2=
EXTT3=
EXTT4=
EXTT5=
EXTT6=
EXTT7=
EXTT8=
EXTT9=
EXTT10=
EXTT11=
PLAYORDER=
